<?xml version="1.0" encoding="UTF-8"?>
<!DOCTYPE svg PUBLIC "-//W3C//DTD SVG 1.1//EN" "http://www.w3.org/Graphics/SVG/1.1/DTD/svg11.dtd">
<!-- Creator: CorelDRAW 2021 (64 Bit) -->
<svg xmlns="http://www.w3.org/2000/svg" xml:space="preserve" width="464px" height="291px" version="1.1" style="shape-rendering:geometricPrecision; text-rendering:geometricPrecision; image-rendering:optimizeQuality; fill-rule:evenodd; clip-rule:evenodd"
viewBox="0 0 464 290.88"
 xmlns:xlink="http://www.w3.org/1999/xlink"
 xmlns:xodm="http://www.corel.com/coreldraw/odm/2003">
 <defs>
  <style type="text/css">
   <![CDATA[
    .fil0 {fill:#C8C8C8;fill-rule:nonzero}
   ]]>
  </style>
 </defs>
 <g id="Camada_x0020_1">
  <metadata id="CorelCorpID_0Corel-Layer"/>
  <path class="fil0" d="M292.58 216.78c25.62,-12.24 38.99,-30.77 38.99,-59.61 0,-56.87 -42.37,-70.72 -91.27,-70.72l-134.61 0 0 285.48 138.4 0.01c51.87,0 100.61,-24.9 100.61,-82.9 0,-35.84 -16.99,-62.35 -52.12,-72.25l0 -0.01 0 0zm-124.13 -81.6l58.88 0c22.64,0 43.02,6.37 43.02,32.63 0,24.24 -15.87,33.99 -38.26,33.99l-63.64 0 0 -66.62zm67.1 188.26l-67.11 0 0 -78.62 68.4 0c27.63,0 45.11,11.52 45.11,40.76 0,28.84 -20.87,37.86 -46.4,37.86zm288.79 -193.9l-115.76 0 0 -28.11 115.76 0 0 28.11 0 0zm45.35 142.02c0,-61.14 -35.77,-112.13 -100.61,-112.13 -63,0 -105.77,47.36 -105.77,109.39 0,64.36 40.52,108.51 105.77,108.51 49.38,0 81.36,-22.23 96.74,-69.52l-50.1 0c-5.4,17.64 -27.63,26.99 -44.87,26.99 -33.27,0 -50.75,-19.5 -50.75,-52.61l149.11 0c0.24,-3.38 0.48,-7 0.48,-10.63l0 0zm-149.51 -25.13c1.85,-27.15 19.9,-44.15 47.13,-44.15 28.51,0 42.85,16.76 45.27,44.15l-92.4 0 0 0z"/>
 </g>
</svg>
