<?xml version="1.0" encoding="UTF-8"?>
<!DOCTYPE svg PUBLIC "-//W3C//DTD SVG 1.1//EN" "http://www.w3.org/Graphics/SVG/1.1/DTD/svg11.dtd">
<!-- Creator: CorelDRAW 2021 (64 Bit) -->
<svg xmlns="http://www.w3.org/2000/svg" xml:space="preserve" width="149px" height="93px" version="1.1" style="shape-rendering:geometricPrecision; text-rendering:geometricPrecision; image-rendering:optimizeQuality; fill-rule:evenodd; clip-rule:evenodd"
viewBox="0 0 149 93.407"
 xmlns:xlink="http://www.w3.org/1999/xlink"
 xmlns:xodm="http://www.corel.com/coreldraw/odm/2003">
 <defs>
  <style type="text/css">
   <![CDATA[
    .fil0 {fill:#C8C8C8;fill-rule:nonzero}
   ]]>
  </style>
 </defs>
 <g id="Camada_x0020_1">
  <metadata id="CorelCorpID_0Corel-Layer"/>
  <path class="fil0" d="M59.302 42.284c8.226,-3.932 12.52,-9.881 12.52,-19.142 0,-18.263 -13.606,-22.712 -29.308,-22.712l-43.226 0 0 91.676 44.442 0.001c16.658,0 32.309,-7.993 32.309,-26.618 0,-11.512 -5.458,-20.022 -16.737,-23.204l0 -0.001zm-39.863 -26.204l18.91 0c7.268,0 13.813,2.044 13.813,10.477 0,7.786 -5.095,10.916 -12.287,10.916l-20.436 0 0 -21.393zm21.549 60.454l-21.549 0 0 -25.247 21.963 0c8.872,0 14.486,3.699 14.486,13.089 0,9.261 -6.7,12.158 -14.9,12.158zm92.737 -62.265l-37.173 0 0 -9.027 37.173 0 0 9.028 0 -0.001zm14.563 45.606c0,-19.634 -11.485,-36.009 -32.309,-36.009 -20.229,0 -33.965,15.21 -33.965,35.129 0,20.668 13.012,34.844 33.965,34.844 15.857,0 26.127,-7.139 31.067,-22.324l-16.089 0c-1.733,5.666 -8.873,8.666 -14.409,8.666 -10.683,0 -16.297,-6.26 -16.297,-16.892l47.882 0c0.078,-1.086 0.155,-2.25 0.155,-3.414zm-48.011 -8.071c0.595,-8.717 6.39,-14.176 15.133,-14.176 9.157,0 13.762,5.381 14.538,14.176l-29.671 0z"/>
 </g>
</svg>
