<?xml version="1.0" encoding="UTF-8"?>
<!DOCTYPE svg PUBLIC "-//W3C//DTD SVG 1.1//EN" "http://www.w3.org/Graphics/SVG/1.1/DTD/svg11.dtd">
<!-- Creator: CorelDRAW 2021 (64 Bit) -->
<svg xmlns="http://www.w3.org/2000/svg" xml:space="preserve" width="464px" height="291px" version="1.1" style="shape-rendering:geometricPrecision; text-rendering:geometricPrecision; image-rendering:optimizeQuality; fill-rule:evenodd; clip-rule:evenodd"
viewBox="0 0 464 290.88"
 xmlns:xlink="http://www.w3.org/1999/xlink"
 xmlns:xodm="http://www.corel.com/coreldraw/odm/2003">
 <defs>
  <style type="text/css">
   <![CDATA[
    .fil0 {fill:#C8C8C8;fill-rule:nonzero}
   ]]>
  </style>
 </defs>
 <g id="Camada_x0020_1">
  <metadata id="CorelCorpID_0Corel-Layer"/>
  <g id="_2311926451152">
   <path class="fil0" d="M245.09 206.05c-13.72,0 -24.8,11.08 -24.8,24.8 0,13.71 11.08,24.79 24.8,24.79 13.71,0 24.8,-11.08 24.8,-24.79 0,-13.72 -11.09,-24.8 -24.8,-24.8zm86.79 0c-13.72,0 -24.8,11.08 -24.8,24.8 0,13.71 11.08,24.79 24.8,24.79 13.72,0 24.8,-11.08 24.8,-24.79 0,-13.72 -11.08,-24.8 -24.8,-24.8zm86.79 0c-13.71,0 -24.79,11.08 -24.79,24.8 0,13.71 11.08,24.79 24.79,24.79 13.72,0 24.8,-11.08 24.8,-24.79 0,-13.72 -11.08,-24.8 -24.8,-24.8zm-86.79 -136.39c-109.57,0 -198.38,72.15 -198.38,161.19 0,36.88 15.42,70.67 40.99,97.87 -11.54,30.53 -35.57,56.41 -35.96,56.72 -5.11,5.43 -6.51,13.33 -3.56,20.15 2.94,6.82 9.69,11.24 17.12,11.24 47.66,0 85.25,-19.92 107.8,-35.88 22.39,7.05 46.57,11.08 71.99,11.08 109.57,0 198.38,-72.15 198.38,-161.19 0,-89.03 -88.81,-161.18 -198.38,-161.18l0 0zm0 285.18c-20.69,0 -41.15,-3.18 -60.76,-9.38l-17.59 -5.58 -15.11 10.69c-11.08,7.83 -26.27,16.59 -44.56,22.48 5.66,-9.38 11.16,-19.92 15.42,-31.16l8.22 -21.77 -15.96 -16.9c-14.03,-14.95 -30.84,-39.67 -30.84,-72.37 0,-68.35 72.29,-123.99 161.18,-123.99 88.89,0 161.19,55.64 161.19,123.99 0,68.35 -72.3,123.99 -161.19,123.99l0 0z"/>
  </g>
 </g>
</svg>
