<?xml version="1.0" encoding="UTF-8"?>
<!DOCTYPE svg PUBLIC "-//W3C//DTD SVG 1.1//EN" "http://www.w3.org/Graphics/SVG/1.1/DTD/svg11.dtd">
<!-- Creator: CorelDRAW 2021 (64 Bit) -->
<svg xmlns="http://www.w3.org/2000/svg" xml:space="preserve" width="149px" height="130px" version="1.1" style="shape-rendering:geometricPrecision; text-rendering:geometricPrecision; image-rendering:optimizeQuality; fill-rule:evenodd; clip-rule:evenodd"
viewBox="0 0 149 130.359"
 xmlns:xlink="http://www.w3.org/1999/xlink"
 xmlns:xodm="http://www.corel.com/coreldraw/odm/2003">
 <defs>
  <style type="text/css">
   <![CDATA[
    .fil0 {fill:#C8C8C8;fill-rule:nonzero}
   ]]>
  </style>
 </defs>
 <g id="Camada_x0020_1">
  <metadata id="CorelCorpID_0Corel-Layer"/>
  <path class="fil0" d="M41.92 51.463c-5.15,0 -9.31,4.161 -9.31,9.311 0,5.15 4.161,9.311 9.31,9.311 5.151,0 9.312,-4.161 9.312,-9.311 0,-5.15 -4.161,-9.311 -9.312,-9.311zm32.59 0c-5.151,0 -9.311,4.161 -9.311,9.311 0,5.15 4.161,9.311 9.311,9.311 5.15,0 9.311,-4.161 9.311,-9.311 0,-5.15 -4.161,-9.311 -9.311,-9.311zm32.589 0c-5.15,0 -9.311,4.161 -9.311,9.311 0,5.15 4.161,9.311 9.311,9.311 5.15,0 9.311,-4.161 9.311,-9.311 0,-5.15 -4.161,-9.311 -9.311,-9.311zm-32.589 -51.212c-41.144,0 -74.491,27.09 -74.491,60.523 0,13.851 5.791,26.538 15.393,36.751 -4.335,11.464 -13.356,21.183 -13.501,21.299 -1.921,2.037 -2.444,5.005 -1.339,7.566 1.106,2.561 3.638,4.219 6.431,4.219 17.895,0 32.007,-7.478 40.475,-13.472 8.409,2.647 17.488,4.16 27.032,4.16 41.144,0 74.49,-27.09 74.49,-60.523 0,-33.432 -33.346,-60.523 -74.49,-60.523zm0 107.08c-7.77,0 -15.451,-1.194 -22.813,-3.521l-6.605 -2.095 -5.674 4.015c-4.161,2.939 -9.864,6.227 -16.731,8.438 2.124,-3.521 4.19,-7.478 5.79,-11.697l3.085 -8.177 -5.994 -6.343c-5.267,-5.615 -11.581,-14.898 -11.581,-27.177 0,-25.664 27.148,-46.556 60.523,-46.556 33.375,0 60.523,20.892 60.523,46.556 0,25.665 -27.148,46.557 -60.523,46.557z"/>
 </g>
</svg>
