<?xml version="1.0" encoding="UTF-8"?>
<!DOCTYPE svg PUBLIC "-//W3C//DTD SVG 1.1//EN" "http://www.w3.org/Graphics/SVG/1.1/DTD/svg11.dtd">
<!-- Creator: CorelDRAW 2021 (64 Bit) -->
<svg xmlns="http://www.w3.org/2000/svg" xml:space="preserve" width="148px" height="111px" version="1.1" style="shape-rendering:geometricPrecision; text-rendering:geometricPrecision; image-rendering:optimizeQuality; fill-rule:evenodd; clip-rule:evenodd"
viewBox="0 0 148 110.997"
 xmlns:xlink="http://www.w3.org/1999/xlink"
 xmlns:xodm="http://www.corel.com/coreldraw/odm/2003">
 <defs>
  <style type="text/css">
   <![CDATA[
    .str0 {stroke:#C8C8C8;stroke-width:0.287;stroke-miterlimit:22.9256}
    .fil0 {fill:#C8C8C8;fill-rule:nonzero}
   ]]>
  </style>
 </defs>
 <g id="Camada_x0020_1">
  <metadata id="CorelCorpID_0Corel-Layer"/>
  <path class="fil0 str0" d="M133.296 0.368l-120.249 0c-7.664,0 -13.875,6.212 -13.875,13.875l0 83.25c0,7.663 6.211,13.875 13.875,13.875l120.249 0c7.663,0 13.876,-6.212 13.876,-13.875l0 -83.25c0,-7.663 -6.212,-13.875 -13.876,-13.875l0 0zm0 13.875l0 11.795c-6.481,5.278 -16.814,13.485 -38.903,30.782 -4.869,3.83 -14.512,13.029 -21.221,12.922 -6.709,0.108 -16.355,-9.094 -21.221,-12.922 -22.087,-17.294 -32.422,-25.503 -38.904,-30.782l0 -11.795 120.249 0zm-120.249 83.25l0 -53.65c6.623,5.275 16.016,12.678 30.334,23.889 6.318,4.974 17.382,15.952 29.791,15.886 12.348,0.066 23.272,-10.753 29.789,-15.883 14.316,-11.211 23.712,-18.616 30.336,-23.892l-0.001 53.65 -120.249 0z"/>
 </g>
</svg>
