<?xml version="1.0" encoding="UTF-8"?>
<!DOCTYPE svg PUBLIC "-//W3C//DTD SVG 1.1//EN" "http://www.w3.org/Graphics/SVG/1.1/DTD/svg11.dtd">
<!-- Creator: CorelDRAW 2021 (64 Bit) -->
<svg xmlns="http://www.w3.org/2000/svg" xml:space="preserve" width="149px" height="130px" version="1.1" style="shape-rendering:geometricPrecision; text-rendering:geometricPrecision; image-rendering:optimizeQuality; fill-rule:evenodd; clip-rule:evenodd"
viewBox="0 0 149 130.378"
 xmlns:xlink="http://www.w3.org/1999/xlink"
 xmlns:xodm="http://www.corel.com/coreldraw/odm/2003">
 <defs>
  <style type="text/css">
   <![CDATA[
    .fil0 {fill:#C8C8C8;fill-rule:nonzero}
   ]]>
  </style>
 </defs>
 <g id="Camada_x0020_1">
  <metadata id="CorelCorpID_0Corel-Layer"/>
  <path class="fil0" d="M145.088 61.115l-13.605 -23.573c0.291,-0.582 0.509,-1.236 0.509,-1.964 0,-2.182 -1.818,-4.002 -4.001,-4.074l-15.06 -26.046c0.145,-0.437 0.291,-0.873 0.291,-1.31 0,-2.328 -1.891,-4.147 -4.147,-4.147 -1.309,0 -2.401,0.583 -3.201,1.528l-28.957 0c-0.727,-0.946 -1.819,-1.528 -3.128,-1.528 -1.31,0 -2.401,0.583 -3.129,1.528l-28.811 0c-0.8,-0.946 -1.891,-1.528 -3.201,-1.528 -2.255,0 -4.146,1.819 -4.146,4.147 0,0.437 0.145,0.946 0.291,1.31l-15.206 26.409c-1.455,0.655 -2.474,2.038 -2.474,3.711 0,0.146 0.073,0.291 0.073,0.437l-14.478 25.027c-1.964,0.364 -3.42,2.037 -3.42,4.074 0,1.964 1.383,3.638 3.274,4.074l14.987 25.901c-0.145,0.437 -0.218,0.8 -0.218,1.31 0,1.964 1.383,3.638 3.274,4.001l14.042 24.373c-0.146,0.437 -0.291,0.946 -0.291,1.455 0,2.328 1.891,4.147 4.146,4.147 1.31,0 2.401,-0.583 3.128,-1.455l29.03 0c0.728,0.873 1.892,1.455 3.129,1.455 1.236,0 2.401,-0.583 3.128,-1.455l29.102 0c0.727,0.8 1.818,1.31 2.983,1.31 2.328,0 4.146,-1.892 4.146,-4.147 0,-0.437 -0.073,-0.8 -0.218,-1.164l14.042 -24.519c1.891,-0.363 3.273,-2.037 3.273,-4.001 0,-0.437 -0.072,-0.873 -0.218,-1.309l14.915 -25.901c1.891,-0.364 3.346,-2.037 3.346,-4.074 0,-1.965 -1.383,-3.638 -3.202,-4.002l0.002 0zm-107.822 56.967l-11.859 -20.59 11.859 0 0 20.59zm0 -22.772l-11.859 0c-0.073,-0.292 -0.219,-0.582 -0.364,-0.874l12.223 -12.876 0 13.75 0 0zm0 -16.953l-13.678 14.478c-0.364,-0.145 -0.728,-0.363 -1.092,-0.436l-15.132 -26.191c0.145,-0.365 0.145,-0.728 0.145,-1.092 0,-0.363 0,-0.654 -0.072,-0.946l14.114 -24.445c0.728,-0.073 1.456,-0.291 2.11,-0.728l13.605 14.114 0 25.246 0 0zm0 -27.792l-12.441 -12.877c0.363,-0.582 0.582,-1.31 0.582,-2.11 0,-0.073 -0.073,-0.218 -0.073,-0.291l11.932 -4.292 0 19.571 0 -0.001zm0 -21.899l-11.859 4.292 11.859 -20.516 0 16.224zm88.688 10.623l0.218 0.363 -9.604 45.399 -17.315 -18.261 26.628 -27.574 0.073 0.073zm-51.147 52.819l3.128 3.201 -6.183 0.001 3.055 -3.202 0 0zm-0.073 -3.056l-22.626 -23.209 21.608 -22.917 22.554 23.791 -21.536 22.335 0 0zm1.456 1.601l21.534 -22.335 18.335 19.352 -1.601 7.64 -33.685 0 -4.583 -4.657zm30.847 -82.94c0.291,0.145 0.582,0.291 0.946,0.364l15.714 27.355 0 0.146c0,0.8 0.219,1.528 0.583,2.11l-26.483 27.501 -22.553 -23.791 31.793 -33.685zm-2.474 -0.582l-30.847 32.667 -15.497 -16.37 45.18 -16.297 1.164 0zm-33.54 0c0.728,0.727 1.674,1.164 2.766,1.164 1.092,0 2.036,-0.437 2.764,-1.164l20.371 0 -40.305 14.551 -13.824 -14.551 28.228 0zm-31.574 1.528l0.291 -0.582c0.244,-0.061 0.491,-0.137 0.729,-0.219l13.896 14.625 -14.915 5.383 -0.001 -19.207zm0.291 20.954l16.515 -5.966 16.224 17.17 -21.608 22.844 -11.131 -11.422 0 -22.626zm0 25.172l9.603 10.841 -9.894 10.404 0 -20.662 0.291 -0.583zm0 23.864l11.422 -12.077 22.481 23.354 -4.656 4.802 -29.538 0 0 -16.079 0.291 0zm1.891 44.016c-0.436,-0.437 -0.945,-0.728 -1.601,-0.946l-0.291 -0.436 0 -24.373 27.138 0 -24.882 25.755 -0.364 0zm35.286 0c-0.728,-0.655 -1.746,-1.164 -2.838,-1.164 -1.092,0 -2.11,0.509 -2.838,1.164l-26.191 0 24.882 -25.755 10.404 0 24.882 25.755 -28.592 0 0.291 0zm32.594 -3.201l-1.164 2.037c-0.364,0.073 -0.655,0.218 -0.946,0.364l-24.227 -24.955 31.066 0 -4.729 22.553 0 0.001zm3.492 -6.039l3.492 -16.515 5.966 0 -9.458 16.515zm9.458 -18.697l-5.529 0 1.236 -5.748 4.657 4.947c-0.146,0.219 -0.291,0.509 -0.364,0.801zm17.97 -29.175l-15.06 26.264c-0.364,0.146 -0.728,0.291 -1.091,0.509l-5.602 -5.966 9.386 -44.525 12.44 21.535c-0.073,0.364 -0.218,0.727 -0.218,1.164 0,0.364 0.073,0.655 0.145,1.018l0 0.001z"/>
 </g>
</svg>
