<?xml version="1.0" encoding="UTF-8"?>
<!DOCTYPE svg PUBLIC "-//W3C//DTD SVG 1.1//EN" "http://www.w3.org/Graphics/SVG/1.1/DTD/svg11.dtd">
<!-- Creator: CorelDRAW 2021 (64 Bit) -->
<svg xmlns="http://www.w3.org/2000/svg" xml:space="preserve" width="148px" height="148px" version="1.1" style="shape-rendering:geometricPrecision; text-rendering:geometricPrecision; image-rendering:optimizeQuality; fill-rule:evenodd; clip-rule:evenodd"
viewBox="0 0 148 148"
 xmlns:xlink="http://www.w3.org/1999/xlink"
 xmlns:xodm="http://www.corel.com/coreldraw/odm/2003">
 <defs>
  <style type="text/css">
   <![CDATA[
    .fil0 {fill:#C8C8C8;fill-rule:nonzero}
   ]]>
  </style>
 </defs>
 <g id="Camada_x0020_1">
  <metadata id="CorelCorpID_0Corel-Layer"/>
  <path class="fil0" d="M125.005 22.334c-13.842,-13.875 -32.276,-21.507 -51.866,-21.507 -40.436,0 -73.339,32.903 -73.339,73.34 0,12.917 3.369,25.536 9.778,36.669l-10.406 37.992 38.883 -10.209c10.703,5.848 22.762,8.92 35.051,8.92l0.033 0c40.403,0 74.033,-32.904 74.033,-73.34 0,-19.59 -8.325,-37.991 -22.167,-51.866l0 0.001zm-51.866 112.849c-10.967,0 -21.704,-2.94 -31.053,-8.49l-2.214 -1.321 -23.058 6.046 6.144 -22.498 -1.454 -2.312c-6.112,-9.713 -9.316,-20.912 -9.316,-32.441 0,-33.598 27.353,-60.951 60.984,-60.951 16.286,0 31.582,6.343 43.078,17.872 11.496,11.53 18.566,26.825 18.534,43.112 0,33.63 -28.048,60.984 -61.645,60.984l0 -0.001zm33.432 -45.655c-1.817,-0.925 -10.836,-5.352 -12.521,-5.946 -1.684,-0.628 -2.907,-0.925 -4.129,0.925 -1.223,1.85 -4.725,5.946 -5.815,7.202 -1.057,1.222 -2.147,1.387 -3.964,0.462 -10.769,-5.385 -17.839,-9.613 -24.942,-21.804 -1.883,-3.237 1.883,-3.006 5.385,-10.009 0.595,-1.223 0.297,-2.28 -0.165,-3.205 -0.462,-0.925 -4.129,-9.944 -5.649,-13.611 -1.486,-3.567 -3.006,-3.072 -4.13,-3.138 -1.057,-0.066 -2.279,-0.066 -3.501,-0.066 -1.222,0 -3.205,0.462 -4.889,2.279 -1.685,1.85 -6.409,6.277 -6.409,15.296 0,9.018 6.574,17.74 7.466,18.962 0.925,1.222 12.917,19.722 31.318,27.684 11.628,5.021 16.188,5.451 22.002,4.592 3.534,-0.528 10.835,-4.426 12.355,-8.722 1.52,-4.294 1.52,-7.961 1.057,-8.721 -0.429,-0.826 -1.652,-1.288 -3.469,-2.181l0 0.001z"/>
 </g>
</svg>
